<svg width="200" height="199" fill="none" xmlns="http://www.w3.org/2000/svg"><path d="M190.872 25 154.055 3.753a1.986 1.986 0 0 0-1.986-.192l-2.648 1.53a1.982 1.982 0 0 0-.841 1.833v100.772a6.265 6.265 0 0 0 2.833 4.899l36.811 21.219a1.98 1.98 0 0 0 1.986.199l2.648-1.536a1.99 1.99 0 0 0 .828-1.827V29.898A6.257 6.257 0 0 0 190.872 25Z" fill="#263238"/><path d="m156.511 109.425-2.648 1.529v8.382a1.552 1.552 0 0 0 .708 1.225l1.238.715a1.575 1.575 0 0 0 1.417 0l1.238-.715c.44-.284.78-.698.973-1.185l2.39-6.886-5.316-3.065Z" fill="#263238"/><path d="M153.863 119.336a1.556 1.556 0 0 0 .708 1.225l1.238.715a.673.673 0 0 0 .575.054.653.653 0 0 0 .247-.164.651.651 0 0 0 .151-.254l2.377-6.892-5.296-3.066v8.382Z" fill="#37474F"/><path d="m183.073 124.712-2.648 1.536v8.375a1.568 1.568 0 0 0 .701 1.232l1.245.715a1.558 1.558 0 0 0 1.41 0l1.245-.715c.44-.285.78-.699.973-1.186l2.384-6.892-5.31-3.065Z" fill="#263238"/><path d="M180.425 134.623a1.568 1.568 0 0 0 .701 1.232l1.245.715a.671.671 0 0 0 .575.053.662.662 0 0 0 .398-.418l2.39-6.892-5.296-3.065-.013 8.375Z" fill="#37474F"/><path d="m151.585 5.363 36.811 21.185a6.267 6.267 0 0 1 2.833 4.906v100.772a1.73 1.73 0 0 1-.831 1.832 1.728 1.728 0 0 1-2.002-.196l-36.811-21.226a6.251 6.251 0 0 1-2.827-4.899V6.991a1.717 1.717 0 0 1 .829-1.83 1.72 1.72 0 0 1 1.998.202Z" fill="#37474F"/><path d="m98.13 143.104 39.817 22.987 55.745-32.183-2.654-1.536-39.817-22.987-53.09 30.654v3.065Z" fill="#455A64"/><path d="M137.947 166.091v-3.066l55.745-32.182v3.065l-55.745 32.183Z" fill="#263238"/><path d="m138.199 161.629-.404-.272c7.064-10.692 7.018-29.164 6.442-33.798-.047-.311-.08-.503-.087-.576l.484-.079c0 .145.053.317.079.523.517 3.277 3.436 21.079 6.892 26.482l-.41.265c-2.735-4.244-5.072-15.698-6.243-22.305.072 7.501-1.02 21.133-6.753 29.76Z" fill="#FAFAFA"/><path d="M161.45 145.302c-.602-.179-14.678-4.442-15.976-10.652l.484-.1c1.231 5.926 15.485 10.242 15.631 10.289l-.139.463Z" fill="#FAFAFA"/><path d="m147.242 142.786-.357-1.516a1.254 1.254 0 0 0-1.166-1.033 1.152 1.152 0 0 0-1.178.59l-.457-.192a1.642 1.642 0 0 1 1.675-.888 1.735 1.735 0 0 1 1.251.663c.08-.628.4-1.2.894-1.596a1.224 1.224 0 0 1 1.205.04l-.218.437a.77.77 0 0 0-.748-.047c-.563.318-.782 1.543-.815 1.986l-.086 1.556Z" fill="#FAFAFA"/><path d="m148.626 147.838-.437-1.377c-.497-1.556-1.324-2.45-2.304-2.51a2.11 2.11 0 0 0-1.953 1.225l-.444-.212c.21-.464.553-.857.985-1.127a2.586 2.586 0 0 1 1.445-.389c.589.033 1.602.351 2.357 1.887.166-1.211.662-3.158 1.94-3.972a3.036 3.036 0 0 1 2.986.033l-.205.443a2.58 2.58 0 0 0-2.516-.059c-1.702 1.059-1.814 4.561-1.814 4.601l-.04 1.457Z" fill="#FAFAFA"/><path d="m142.648 151.201-.437-.225c.979-1.887 3.131-3.244 4.998-3.151a2.642 2.642 0 0 1 2.053 1.013 7.178 7.178 0 0 1 3.138-4.688 6.09 6.09 0 0 1 5.958-.443l-.192.443a5.65 5.65 0 0 0-5.482.411 6.557 6.557 0 0 0-2.979 5.084v1.252l-.463-1.166a2.173 2.173 0 0 0-2.026-1.416c-1.715-.087-3.668 1.158-4.568 2.886Z" fill="#FAFAFA"/><path d="m139.96 158.51-.431-.238c.596-1.086 3.767-6.541 7.521-7.528a3.911 3.911 0 0 1 3.165.457l-.252.417a3.452 3.452 0 0 0-2.787-.404c-2.754.729-5.601 4.383-7.216 7.296Z" fill="#FAFAFA"/><path d="M188.383 100.189v3.066l-50.436 29.117-39.816-22.987v-3.065l50.435-29.117 39.817 22.986Z" fill="#263238"/><path d="m188.383 100.189-50.436 29.118-39.816-22.987 50.435-29.117 39.817 22.986Z" fill="#455A64"/><path d="M188.383 66.477v3.06L137.947 98.66 98.131 75.667v-3.059l50.435-29.124 39.817 22.993Z" fill="#263238"/><path d="m188.383 66.477-50.436 29.118-39.816-22.987 50.435-29.124 39.817 22.993Z" fill="#455A64"/><path d="m137.775 55.613-36.811-21.22a1.984 1.984 0 0 0-1.986-.198c-.477.272-2.172 1.258-2.648 1.53a1.986 1.986 0 0 0-.834 1.834v100.745a6.253 6.253 0 0 0 2.833 4.899l36.811 21.226a1.99 1.99 0 0 0 1.986.199c.477-.278 2.185-1.258 2.648-1.543a1.989 1.989 0 0 0 .848-1.827V60.518a6.26 6.26 0 0 0-2.847-4.905Z" fill="#263238"/><path opacity=".2" d="m137.947 71.079 2.661-1.536V60.34l-2.668 1.536.007 9.203ZM191.044 40.425l2.662-1.529v-9.203l-2.669 1.536.007 9.196Z" fill="#000"/><path d="m103.44 140.039-2.648 1.529v8.382a1.574 1.574 0 0 0 .709 1.225l1.238.715a1.567 1.567 0 0 0 1.417 0l1.238-.715a2.53 2.53 0 0 0 .973-1.179l2.39-6.892-5.317-3.065Z" fill="#263238"/><path d="M100.786 149.95a1.56 1.56 0 0 0 .708 1.225l1.238.715a.671.671 0 0 0 .575.053.67.67 0 0 0 .398-.418l2.39-6.892-5.296-3.065-.013 8.382Z" fill="#37474F"/><path d="m129.982 155.365-2.648 1.53v8.381a1.556 1.556 0 0 0 .702 1.225l1.244.715a1.56 1.56 0 0 0 1.411 0l1.244-.715c.437-.285.776-.696.974-1.178l2.383-6.892-5.31-3.066Z" fill="#263238"/><path d="M127.334 165.243a1.556 1.556 0 0 0 .702 1.225l1.244.715a.658.658 0 0 0 .822-.109.677.677 0 0 0 .152-.255l2.383-6.892-5.296-3.065-.007 8.381Z" fill="#37474F"/><path d="m98.303 35.93 36.817 21.219a6.266 6.266 0 0 1 2.827 4.906V166.09s-2.046-1.212-2.827-1.662l-36.81-21.226a6.254 6.254 0 0 1-2.834-4.899V37.559a1.722 1.722 0 0 1 2.827-1.63Z" fill="#37474F"/><path opacity=".2" d="m135.12 57.149-36.817-21.22a1.721 1.721 0 0 0-2.827 1.63v8.997l42.471 24.496v-8.997a6.266 6.266 0 0 0-2.827-4.906Z" fill="#000"/><path d="M185.728 66.722a.253.253 0 0 1-.172-.073.255.255 0 0 1-.073-.172v-30.23L156.65 52.893a.23.23 0 0 1-.184.03.233.233 0 0 1-.147-.116.228.228 0 0 1-.032-.09.252.252 0 0 1 .046-.183.252.252 0 0 1 .072-.065l29.237-16.856a.229.229 0 0 1 .245 0 .248.248 0 0 1 .119.212v30.653c0 .035-.007.07-.021.102a.26.26 0 0 1-.062.084.247.247 0 0 1-.195.059Z" fill="#FAFAFA"/><path d="M180.418 59.056h-.073a.246.246 0 0 1-.153-.108.247.247 0 0 1-.032-.184l4.939-21.39-9.799 16.968a.238.238 0 0 1-.331.092.245.245 0 0 1-.124-.245.233.233 0 0 1 .032-.092l10.592-18.392a.255.255 0 0 1 .305-.106.248.248 0 0 1 .126.115.248.248 0 0 1 .02.17l-5.297 22.993a.243.243 0 0 1-.074.121.241.241 0 0 1-.131.058Z" fill="#FAFAFA"/><path d="M169.805 51.422a.238.238 0 0 1-.179-.08.245.245 0 0 1 0-.344l15.93-15.326a.246.246 0 0 1 .344 0 .25.25 0 0 1 0 .35l-15.929 15.32a.244.244 0 0 1-.166.08Z" fill="#FAFAFA"/><path d="M185.728 61.83a.252.252 0 0 1-.245-.245c0-4.012-4.476-4.284-4.668-4.29a.258.258 0 0 1-.185-.1.237.237 0 0 1-.04-.198 4.757 4.757 0 0 0-1.529-4.509 2.292 2.292 0 0 0-1.761-.662 1.223 1.223 0 0 0-.841.57.246.246 0 0 1-.415.016.246.246 0 0 1-.042-.156c0-.152.272-3.72-2.866-4.071a.253.253 0 0 1-.192-.133.246.246 0 0 1 0-.225s1.39-2.602.854-3.88a1.036 1.036 0 0 0-.709-.609.237.237 0 0 1-.165-.304.25.25 0 0 1 .304-.166 1.511 1.511 0 0 1 1.02.894c.51 1.212-.351 3.218-.722 3.972 2.437.47 2.887 2.768 2.953 3.907.218-.155.466-.261.728-.312a2.652 2.652 0 0 1 2.165.801 5.295 5.295 0 0 1 1.741 4.714c1.073.14 4.86.887 4.853 4.754a.24.24 0 0 1-.074.162.243.243 0 0 1-.164.07ZM185.728 55.222a.246.246 0 0 1-.245-.225c-.106-1.403-.92-3.217-1.947-3.668a1.144 1.144 0 0 0-1.238.199.248.248 0 0 1-.271 0 .245.245 0 0 1-.126-.238s.219-2.483-.9-3.51a1.991 1.991 0 0 0-1.775-.397.239.239 0 0 1-.231-.079.255.255 0 0 1-.047-.245c.225-.616.662-2.344.073-2.96-.278-.284-.788-.31-1.523-.072a.244.244 0 0 1-.278-.093.253.253 0 0 1 0-.291c.411-.517 1.424-2.026 1.172-2.748a.606.606 0 0 0-.49-.37.25.25 0 0 1-.151-.112.258.258 0 0 1-.028-.186.235.235 0 0 1 .292-.179 1.074 1.074 0 0 1 .841.662c.271.788-.391 1.986-.854 2.648a1.508 1.508 0 0 1 1.363.351c.729.755.378 2.35.159 3.098a2.305 2.305 0 0 1 1.801.563c.987.9 1.092 2.649 1.079 3.45a1.555 1.555 0 0 1 1.324 0c1.252.55 2.119 2.502 2.245 4.084a.24.24 0 0 1-.225.258l-.02.06Z" fill="#FAFAFA"/><path d="M199.989 25.099a1.99 1.99 0 0 0-1.166-1.636L159.358.675a6.268 6.268 0 0 0-5.661 0L93 35.725a1.987 1.987 0 0 0-1.165 1.635v3.065A1.986 1.986 0 0 0 93 42.061l39.465 22.781a6.234 6.234 0 0 0 5.661 0l60.697-35.043a1.989 1.989 0 0 0 1.166-1.635v-3.065Z" fill="#37474F"/><path d="M132.465 61.777 93 38.995c-1.563-.907-1.563-2.37 0-3.27L153.697.675a6.272 6.272 0 0 1 5.661 0l39.465 22.788c1.569.907 1.569 2.364 0 3.27l-60.697 35.044a6.234 6.234 0 0 1-5.661 0Z" fill="#455A64"/><path opacity=".1" d="M191.037 34.288 172.46 57.281l-31.852 18.392-.006-12.261 50.435-29.124ZM188.383 69.536 172.46 90.993l-31.851 18.399V97.124l47.774-27.588ZM188.383 103.255l-15.923 21.457-31.851 18.399v-12.268l47.774-27.588Z" fill="#000"/><path d="m115.317 170.222-48.833 28.197-54.99-31.825 48.833-28.191 54.99 31.819Z" fill="#00D47E"/><path opacity=".5" d="m115.317 170.222-48.833 28.197-54.99-31.825 48.833-28.191 54.99 31.819Z" fill="#000"/><path d="M60.327 100.183v38.22l-48.834 28.191V128.38l48.834-28.197Z" fill="#00D47E"/><path opacity=".23" d="M60.327 100.183v38.22l-48.834 28.191V128.38l48.834-28.197Z" fill="#000"/><path d="M66.484 160.198v38.221l-54.99-31.825V128.38l54.99 31.818Z" fill="#00D47E"/><path opacity=".38" d="M66.484 160.198v38.221l-54.99-31.825V128.38l54.99 31.818Z" fill="#000"/><path d="M115.318 132.001v38.221l-54.991-31.819v-38.22l54.991 31.818Z" fill="#00D47E"/><path opacity=".4" d="M115.318 132.001v38.221l-54.991-31.819v-38.22l54.991 31.818Z" fill="#000"/><path d="M115.318 170.222v-38.221l-48.834 28.197v38.221l48.834-28.197Z" fill="#00D47E"/><path opacity=".23" d="M115.318 170.222v-38.221l-48.834 28.197v38.221l48.834-28.197Z" fill="#000"/><path d="m60.327 100.183.066-21.16 54.858 31.859.067 21.119-54.991-31.818Z" fill="#00D47E"/><path opacity=".2" d="m60.327 100.183.066-21.16 54.858 31.859.067 21.119-54.991-31.818Z" fill="#000"/><path d="m66.484 160.198 4.582-18.511 48.39-27.939-4.138 18.253-48.834 28.197Z" fill="#00D47E"/><path opacity=".3" d="m66.484 160.198 4.582-18.511 48.39-27.939-4.138 18.253-48.834 28.197Z" fill="#000"/><path d="m11.493 128.38-5.826-19.2 48.834-28.19 5.826 19.193-48.834 28.197Z" fill="#00D47E"/><path opacity=".1" d="m11.493 128.38-5.826-19.2 48.834-28.19 5.826 19.193-48.834 28.197Z" fill="#000"/><path d="M11.493 128.38 0 112.51l54.997 31.819 11.487 15.869-54.99-31.818Z" fill="#00D47E"/><path opacity=".45" d="M11.493 128.38 0 112.51l54.997 31.819 11.487 15.869-54.99-31.818Z" fill="#000"/><g opacity=".7" fill="#fff"><path d="M80.864 187.052a.304.304 0 0 1-.305-.298v-6.727a.31.31 0 0 1 .305-.304.306.306 0 0 1 .298.304v6.727a.298.298 0 0 1-.298.298Z"/><path d="M79.983 182.357a.34.34 0 0 1-.119 0 .311.311 0 0 1-.159-.397l1.073-2.469 1.192 1.377a.304.304 0 0 1-.457.397l-.563-.662-.662 1.589a.306.306 0 0 1-.305.165ZM83.638 185.469a.305.305 0 0 1-.298-.304v-6.72a.3.3 0 0 1 .298-.298.297.297 0 0 1 .298.298v6.713a.303.303 0 0 1-.298.311Z"/><path d="M82.757 180.775a.397.397 0 0 1-.119 0 .295.295 0 0 1-.179-.282.299.299 0 0 1 .027-.115l1.066-2.503 1.191 1.371a.305.305 0 0 1 0 .424.294.294 0 0 1-.211.088.302.302 0 0 1-.212-.088l-.563-.663-.662 1.589a.302.302 0 0 1-.338.179Z"/></g><g opacity=".7" fill="#fff"><path d="M72.86 191.613a.667.667 0 0 1-.325-.079.796.796 0 0 1-.364-.722v-.827a.307.307 0 0 1 .092-.212.307.307 0 0 1 .213-.086.297.297 0 0 1 .298.298v.827c0 .119 0 .185.06.199.059.013.092 0 .191-.053a1.755 1.755 0 0 0 .563-1.358v-3.442a.299.299 0 0 1 .509-.211.299.299 0 0 1 .087.211v3.442a2.276 2.276 0 0 1-.854 1.874.921.921 0 0 1-.47.139Z"/><path d="M69.702 188.839v-.516a8.525 8.525 0 0 1 3.833-6.621c1.086-.622 2.119-.715 2.913-.251a2.86 2.86 0 0 1 1.232 2.648v.172l-7.978 4.568Zm5.634-7.11a3.113 3.113 0 0 0-1.496.463 7.935 7.935 0 0 0-3.51 5.595l6.734-3.893a2.23 2.23 0 0 0-.934-1.987 1.578 1.578 0 0 0-.794-.178Z"/></g><path opacity=".7" d="m0 112.51 54.997 31.819 11.487 15.869-12.096-15.306L0 112.51ZM115.318 132.001l-48.834 28.197v38.221l.914-37.453 47.92-28.965Z" fill="#fff"/><path d="M43.656 116.714c5.038-.728 9.64-3.972 12.58-8.05a19.214 19.214 0 0 0 2.979-6.316c.635-2.123.74-4.37.304-6.541-.907-3.635-4.27-5.787-7.825-6.237a11.917 11.917 0 0 0-5.363.523 9.056 9.056 0 0 0-4.436 3.31 5.482 5.482 0 0 0-1.245 2.887 1.655 1.655 0 0 0 1.483 1.688 4.78 4.78 0 0 0 3.026-.768 9.592 9.592 0 0 0 2.827-2.41 20.233 20.233 0 0 0 3.668-6.951c.53-2.175.53-4.446 0-6.621a12.223 12.223 0 0 0-3-6.098 11.096 11.096 0 0 0-6.448-2.84 15.703 15.703 0 0 0-7.11.662 7.607 7.607 0 0 0-2.735 1.496c-.569.53-1.218 1.404-.986 2.265.232.86 1.49 1.244 2.344 1.132a6.144 6.144 0 0 0 3.31-1.794c.99-.975 1.831-2.09 2.496-3.31a5.812 5.812 0 0 0 .748-2.874c-.086-4.198-4.727-6.912-8.362-7.68a10.755 10.755 0 0 0-2.986-.198c-.337 0-.132.556.14.536 1.955-.09 3.899.35 5.627 1.27a9.415 9.415 0 0 1 4.111 3.662 5.038 5.038 0 0 1-.159 5.124 13.591 13.591 0 0 1-2.396 3.06c-.788.714-1.987 1.542-3.092 1.462a.974.974 0 0 1-.874-.55 1.41 1.41 0 0 1 .39-1.204 5.542 5.542 0 0 1 2.113-1.417 13.902 13.902 0 0 1 6.282-1.033c2.212.04 4.363.731 6.184 1.986a9.726 9.726 0 0 1 3.218 5.105c.638 2.031.837 4.175.582 6.29a16.12 16.12 0 0 1-2.403 5.958c-1.225 2.026-2.76 3.972-5.065 4.767-.57.205-1.76.503-1.986-.325-.225-.827.424-1.847.84-2.489a8.421 8.421 0 0 1 3.854-3.25 10.64 10.64 0 0 1 4.827-.729c3.118.232 6.282 1.86 7.368 4.959.545 1.852.604 3.812.172 5.694a18.296 18.296 0 0 1-2.191 5.852 20.902 20.902 0 0 1-9.858 8.6c-.98.424-1.986.782-3.013 1.113-.105.039-.06.304.06.284Z" fill="#E0E0E0"/><path d="M22.61 59.234c-2.649-.192-6.297 1.894-5 3.416 1.299 1.523 4.741-.94 4.741-.94s-.324 3.079.801 3.43c1.126.35 2.649-2.589 1.523-4.47a3.462 3.462 0 0 0 3.31-.423c1.602-1.178-.092-2.29-2.35-2.092 0 0 1.615-5.296-1.649-4.283-1.635.496-2.21 2.41-1.377 5.362Z" fill="#00D47E"/><path opacity=".65" d="M22.61 59.234c-2.649-.192-6.297 1.894-5 3.416 1.299 1.523 4.741-.94 4.741-.94s-.324 3.079.801 3.43c1.126.35 2.649-2.589 1.523-4.47a3.462 3.462 0 0 0 3.31-.423c1.602-1.178-.092-2.29-2.35-2.092 0 0 1.615-5.296-1.649-4.283-1.635.496-2.21 2.41-1.377 5.362Z" fill="#fff"/><path d="M25.072 60.36a5.293 5.293 0 0 0-.463-.404c-.232-.179-.477-.351-.709-.523a6.037 6.037 0 0 0-1.145-.656 1.211 1.211 0 0 0-.662-.105.33.33 0 0 0-.265.516c.182.197.41.347.662.437l.358.192c.245.145.463.311.662.477.198.165.463.324.662.49.341.276.723.5 1.132.662a.125.125 0 0 0 .12 0c.337-.265-.16-.894-.352-1.086Z" fill="#455A64"/></svg>